<?xml version="1.0" encoding="UTF-8"?><svg xmlns="http://www.w3.org/2000/svg" xmlns:xlink="http://www.w3.org/1999/xlink" fill-opacity="1" color-rendering="auto" color-interpolation="auto" text-rendering="auto" stroke="black" stroke-linecap="square" width="788" stroke-miterlimit="10" shape-rendering="auto" stroke-opacity="1" fill="black" stroke-dasharray="none" font-weight="normal" stroke-width="1" height="969" font-family="'Dialog'" font-style="normal" stroke-linejoin="miter" font-size="12px" stroke-dashoffset="0" image-rendering="auto">
  <!--Generated by ySVG 2.5-->
  <defs id="genericDefs"/>
  <g>
    <defs id="defs1">
      <clipPath clipPathUnits="userSpaceOnUse" id="clipPath1">
        <path d="M0 0 L788 0 L788 969 L0 969 L0 0 Z"/>
      </clipPath>
      <clipPath clipPathUnits="userSpaceOnUse" id="clipPath2">
        <path d="M168 -112 L956 -112 L956 857 L168 857 L168 -112 Z"/>
      </clipPath>
    </defs>
    <g fill="white" text-rendering="geometricPrecision" shape-rendering="geometricPrecision" transform="translate(-168,112)" stroke="white">
      <rect x="168" width="788" height="969" y="-112" clip-path="url(#clipPath2)" stroke="none"/>
    </g>
    <g fill="rgb(245,245,245)" text-rendering="geometricPrecision" shape-rendering="geometricPrecision" transform="matrix(1,0,0,1,-168,112)" stroke="rgb(245,245,245)">
      <rect x="183.4218" y="-96.4281" clip-path="url(#clipPath2)" width="757.5399" rx="4" ry="4" height="937.5607" stroke="none"/>
      <rect x="183.4218" y="-96.4281" clip-path="url(#clipPath2)" fill="rgb(235,235,235)" width="757.5399" height="21.4609" stroke="none"/>
    </g>
    <g font-size="15px" stroke-linecap="butt" transform="matrix(1,0,0,1,-168,112)" text-rendering="geometricPrecision" font-family="sans-serif" shape-rendering="geometricPrecision" stroke-miterlimit="1.45">
      <text x="889.7722" xml:space="preserve" y="-80.5047" clip-path="url(#clipPath2)" stroke="none">Server</text>
      <rect x="183.4218" y="-96.4281" clip-path="url(#clipPath2)" fill="none" width="757.5399" stroke-dasharray="6,2" rx="4" ry="4" height="937.5607"/>
    </g>
    <g fill="rgb(225,225,225)" text-rendering="geometricPrecision" shape-rendering="geometricPrecision" transform="matrix(1,0,0,1,-168,112)" stroke="rgb(225,225,225)">
      <rect x="198.4218" y="459.6717" clip-path="url(#clipPath2)" width="234.4333" rx="4" ry="4" height="366.4609" stroke="none"/>
      <rect x="198.4218" y="459.6717" clip-path="url(#clipPath2)" fill="rgb(235,235,235)" width="234.4333" height="21.4609" stroke="none"/>
    </g>
    <g font-size="15px" stroke-linecap="butt" transform="matrix(1,0,0,1,-168,112)" text-rendering="geometricPrecision" font-family="sans-serif" shape-rendering="geometricPrecision" stroke-miterlimit="1.45">
      <text x="378.3551" xml:space="preserve" y="475.595" clip-path="url(#clipPath2)" stroke="none">Zone 2</text>
      <rect x="198.4218" y="459.6717" clip-path="url(#clipPath2)" fill="none" width="234.4333" stroke-dasharray="6,2" rx="4" ry="4" height="366.4609"/>
    </g>
    <g fill="rgb(255,204,0)" text-rendering="geometricPrecision" shape-rendering="geometricPrecision" transform="matrix(1,0,0,1,-168,112)" stroke="rgb(255,204,0)">
      <rect x="213.4218" width="151.2667" height="45" y="496.1326" clip-path="url(#clipPath2)" stroke="none"/>
    </g>
    <g text-rendering="geometricPrecision" stroke-miterlimit="1.45" shape-rendering="geometricPrecision" transform="matrix(1,0,0,1,-168,112)" stroke-linecap="butt">
      <rect fill="none" x="213.4218" width="151.2667" height="45" y="496.1326" clip-path="url(#clipPath2)"/>
      <text x="253.2074" xml:space="preserve" y="522.7869" clip-path="url(#clipPath2)" font-family="sans-serif" stroke="none">Schaltpunkt</text>
    </g>
    <g fill="rgb(255,204,0)" text-rendering="geometricPrecision" shape-rendering="geometricPrecision" transform="matrix(1,0,0,1,-168,112)" stroke="rgb(255,204,0)">
      <rect x="213.4218" width="151.2667" height="45" y="631.1326" clip-path="url(#clipPath2)" stroke="none"/>
    </g>
    <g text-rendering="geometricPrecision" stroke-miterlimit="1.45" shape-rendering="geometricPrecision" transform="matrix(1,0,0,1,-168,112)" stroke-linecap="butt">
      <rect fill="none" x="213.4218" width="151.2667" height="45" y="631.1326" clip-path="url(#clipPath2)"/>
      <text x="253.2074" xml:space="preserve" y="657.7869" clip-path="url(#clipPath2)" font-family="sans-serif" stroke="none">Schaltpunkt</text>
    </g>
    <g fill="rgb(255,204,0)" text-rendering="geometricPrecision" shape-rendering="geometricPrecision" transform="matrix(1,0,0,1,-168,112)" stroke="rgb(255,204,0)">
      <rect x="213.4218" width="151.2667" height="45" y="721.1326" clip-path="url(#clipPath2)" stroke="none"/>
    </g>
    <g text-rendering="geometricPrecision" stroke-miterlimit="1.45" shape-rendering="geometricPrecision" transform="matrix(1,0,0,1,-168,112)" stroke-linecap="butt">
      <rect fill="none" x="213.4218" width="151.2667" height="45" y="721.1326" clip-path="url(#clipPath2)"/>
      <text x="253.2074" xml:space="preserve" y="747.7869" clip-path="url(#clipPath2)" font-family="sans-serif" stroke="none">Schaltpunkt</text>
    </g>
    <g fill="rgb(255,204,0)" text-rendering="geometricPrecision" shape-rendering="geometricPrecision" transform="matrix(1,0,0,1,-168,112)" stroke="rgb(255,204,0)">
      <rect x="213.4218" width="111.6667" height="45" y="541.1326" clip-path="url(#clipPath2)" stroke="none"/>
    </g>
    <g text-rendering="geometricPrecision" stroke-miterlimit="1.45" shape-rendering="geometricPrecision" transform="matrix(1,0,0,1,-168,112)" stroke-linecap="butt">
      <rect fill="none" x="213.4218" width="111.6667" height="45" y="541.1326" clip-path="url(#clipPath2)"/>
      <text x="243.1252" xml:space="preserve" y="560.8026" clip-path="url(#clipPath2)" font-family="sans-serif" stroke="none">Ausgang</text>
      <text x="235.1272" xml:space="preserve" y="574.7713" clip-path="url(#clipPath2)" font-family="sans-serif" stroke="none">z.B. LED an</text>
    </g>
    <g fill="rgb(255,204,0)" text-rendering="geometricPrecision" shape-rendering="geometricPrecision" transform="matrix(1,0,0,1,-168,112)" stroke="rgb(255,204,0)">
      <rect x="213.4218" width="111.6667" height="45" y="586.1326" clip-path="url(#clipPath2)" stroke="none"/>
    </g>
    <g text-rendering="geometricPrecision" stroke-miterlimit="1.45" shape-rendering="geometricPrecision" transform="matrix(1,0,0,1,-168,112)" stroke-linecap="butt">
      <rect fill="none" x="213.4218" width="111.6667" height="45" y="586.1326" clip-path="url(#clipPath2)"/>
      <text x="243.1252" xml:space="preserve" y="605.8026" clip-path="url(#clipPath2)" font-family="sans-serif" stroke="none">Ausgang</text>
      <text x="220.8625" xml:space="preserve" y="619.7713" clip-path="url(#clipPath2)" font-family="sans-serif" stroke="none">z.B. RELAIS  aus</text>
    </g>
    <g fill="rgb(255,204,0)" text-rendering="geometricPrecision" shape-rendering="geometricPrecision" transform="matrix(1,0,0,1,-168,112)" stroke="rgb(255,204,0)">
      <rect x="213.4218" width="111.6667" height="45" y="676.1326" clip-path="url(#clipPath2)" stroke="none"/>
    </g>
    <g text-rendering="geometricPrecision" stroke-miterlimit="1.45" shape-rendering="geometricPrecision" transform="matrix(1,0,0,1,-168,112)" stroke-linecap="butt">
      <rect fill="none" x="213.4218" width="111.6667" height="45" y="676.1326" clip-path="url(#clipPath2)"/>
      <text x="243.1252" xml:space="preserve" y="695.8026" clip-path="url(#clipPath2)" font-family="sans-serif" stroke="none">Ausgang</text>
      <text x="223.9885" xml:space="preserve" y="709.7713" clip-path="url(#clipPath2)" font-family="sans-serif" stroke="none">z.B. RELAIS  an</text>
    </g>
    <g fill="rgb(255,204,0)" text-rendering="geometricPrecision" shape-rendering="geometricPrecision" transform="matrix(1,0,0,1,-168,112)" stroke="rgb(255,204,0)">
      <rect x="213.4218" width="111.6667" height="45" y="766.1326" clip-path="url(#clipPath2)" stroke="none"/>
    </g>
    <g text-rendering="geometricPrecision" stroke-miterlimit="1.45" shape-rendering="geometricPrecision" transform="matrix(1,0,0,1,-168,112)" stroke-linecap="butt">
      <rect fill="none" x="213.4218" width="111.6667" height="45" y="766.1326" clip-path="url(#clipPath2)"/>
      <text x="243.1252" xml:space="preserve" y="785.8026" clip-path="url(#clipPath2)" font-family="sans-serif" stroke="none">Ausgang</text>
      <text x="223.9885" xml:space="preserve" y="799.7713" clip-path="url(#clipPath2)" font-family="sans-serif" stroke="none">z.B. RELAIS  an</text>
    </g>
    <g fill="rgb(225,225,225)" text-rendering="geometricPrecision" shape-rendering="geometricPrecision" transform="matrix(1,0,0,1,-168,112)" stroke="rgb(225,225,225)">
      <rect x="716.695" y="508.6648" clip-path="url(#clipPath2)" width="209.2667" rx="4" ry="4" height="141.4609" stroke="none"/>
      <rect x="716.695" y="508.6648" clip-path="url(#clipPath2)" fill="rgb(235,235,235)" width="209.2667" height="21.4609" stroke="none"/>
    </g>
    <g font-size="15px" stroke-linecap="butt" transform="matrix(1,0,0,1,-168,112)" text-rendering="geometricPrecision" font-family="sans-serif" shape-rendering="geometricPrecision" stroke-miterlimit="1.45">
      <text x="863.0022" xml:space="preserve" y="524.5881" clip-path="url(#clipPath2)" stroke="none">Sensor4</text>
      <rect x="716.695" y="508.6648" clip-path="url(#clipPath2)" fill="none" width="209.2667" stroke-dasharray="6,2" rx="4" ry="4" height="141.4609"/>
    </g>
    <g fill="rgb(255,204,0)" text-rendering="geometricPrecision" shape-rendering="geometricPrecision" transform="matrix(1,0,0,1,-168,112)" stroke="rgb(255,204,0)">
      <rect x="731.695" width="151.2667" height="45" y="590.1257" clip-path="url(#clipPath2)" stroke="none"/>
    </g>
    <g text-rendering="geometricPrecision" stroke-miterlimit="1.45" shape-rendering="geometricPrecision" transform="matrix(1,0,0,1,-168,112)" stroke-linecap="butt">
      <rect fill="none" x="731.695" width="151.2667" height="45" y="590.1257" clip-path="url(#clipPath2)"/>
      <text x="777.0032" xml:space="preserve" y="616.78" clip-path="url(#clipPath2)" font-family="sans-serif" stroke="none">Mittelwert</text>
    </g>
    <g fill="rgb(255,204,0)" text-rendering="geometricPrecision" shape-rendering="geometricPrecision" transform="matrix(1,0,0,1,-168,112)" stroke="rgb(255,204,0)">
      <rect x="731.695" width="151.2667" height="45" y="545.1257" clip-path="url(#clipPath2)" stroke="none"/>
    </g>
    <g text-rendering="geometricPrecision" stroke-miterlimit="1.45" shape-rendering="geometricPrecision" transform="matrix(1,0,0,1,-168,112)" stroke-linecap="butt">
      <rect fill="none" x="731.695" width="151.2667" height="45" y="545.1257" clip-path="url(#clipPath2)"/>
      <text x="792.885" xml:space="preserve" y="571.78" clip-path="url(#clipPath2)" font-family="sans-serif" stroke="none">Wert</text>
      <path fill="none" d="M716.6656 592.5393 L440.8197 627.1813" clip-path="url(#clipPath2)"/>
      <path d="M432.8821 628.1782 L445.4116 631.6439 L441.8119 627.0566 L444.1655 621.7218 Z" clip-path="url(#clipPath2)" stroke="none"/>
    </g>
    <g fill="rgb(225,225,225)" text-rendering="geometricPrecision" shape-rendering="geometricPrecision" transform="matrix(1,0,0,1,-168,112)" stroke="rgb(225,225,225)">
      <rect x="716.695" y="322.9942" clip-path="url(#clipPath2)" width="209.2667" rx="4" ry="4" height="141.4609" stroke="none"/>
      <rect x="716.695" y="322.9942" clip-path="url(#clipPath2)" fill="rgb(235,235,235)" width="209.2667" height="21.4609" stroke="none"/>
    </g>
    <g font-size="15px" stroke-linecap="butt" transform="matrix(1,0,0,1,-168,112)" text-rendering="geometricPrecision" font-family="sans-serif" shape-rendering="geometricPrecision" stroke-miterlimit="1.45">
      <text x="863.0022" xml:space="preserve" y="338.9176" clip-path="url(#clipPath2)" stroke="none">Sensor3</text>
      <rect x="716.695" y="322.9942" clip-path="url(#clipPath2)" fill="none" width="209.2667" stroke-dasharray="6,2" rx="4" ry="4" height="141.4609"/>
    </g>
    <g fill="rgb(255,204,0)" text-rendering="geometricPrecision" shape-rendering="geometricPrecision" transform="matrix(1,0,0,1,-168,112)" stroke="rgb(255,204,0)">
      <rect x="731.695" width="151.2667" height="45" y="404.4552" clip-path="url(#clipPath2)" stroke="none"/>
    </g>
    <g text-rendering="geometricPrecision" stroke-miterlimit="1.45" shape-rendering="geometricPrecision" transform="matrix(1,0,0,1,-168,112)" stroke-linecap="butt">
      <rect fill="none" x="731.695" width="151.2667" height="45" y="404.4552" clip-path="url(#clipPath2)"/>
      <text x="777.0032" xml:space="preserve" y="431.1095" clip-path="url(#clipPath2)" font-family="sans-serif" stroke="none">Mittelwert</text>
    </g>
    <g fill="rgb(255,204,0)" text-rendering="geometricPrecision" shape-rendering="geometricPrecision" transform="matrix(1,0,0,1,-168,112)" stroke="rgb(255,204,0)">
      <rect x="731.695" width="151.2667" height="45" y="359.4552" clip-path="url(#clipPath2)" stroke="none"/>
    </g>
    <g text-rendering="geometricPrecision" stroke-miterlimit="1.45" shape-rendering="geometricPrecision" transform="matrix(1,0,0,1,-168,112)" stroke-linecap="butt">
      <rect fill="none" x="731.695" width="151.2667" height="45" y="359.4552" clip-path="url(#clipPath2)"/>
      <text x="792.885" xml:space="preserve" y="386.1095" clip-path="url(#clipPath2)" font-family="sans-serif" stroke="none">Wert</text>
      <path fill="none" d="M716.6656 445.297 L440.0337 581.6067" clip-path="url(#clipPath2)"/>
      <path d="M432.8576 585.1427 L445.8318 584.3237 L440.9307 581.1647 L441.4118 575.3536 Z" clip-path="url(#clipPath2)" stroke="none"/>
    </g>
    <g fill="rgb(225,225,225)" text-rendering="geometricPrecision" shape-rendering="geometricPrecision" transform="matrix(1,0,0,1,-168,112)" stroke="rgb(225,225,225)">
      <rect x="716.695" y="137.3237" clip-path="url(#clipPath2)" width="209.2667" rx="4" ry="4" height="141.4609" stroke="none"/>
      <rect x="716.695" y="137.3237" clip-path="url(#clipPath2)" fill="rgb(235,235,235)" width="209.2667" height="21.4609" stroke="none"/>
    </g>
    <g font-size="15px" stroke-linecap="butt" transform="matrix(1,0,0,1,-168,112)" text-rendering="geometricPrecision" font-family="sans-serif" shape-rendering="geometricPrecision" stroke-miterlimit="1.45">
      <text x="863.0022" xml:space="preserve" y="153.247" clip-path="url(#clipPath2)" stroke="none">Sensor2</text>
      <rect x="716.695" y="137.3237" clip-path="url(#clipPath2)" fill="none" width="209.2667" stroke-dasharray="6,2" rx="4" ry="4" height="141.4609"/>
    </g>
    <g fill="rgb(255,204,0)" text-rendering="geometricPrecision" shape-rendering="geometricPrecision" transform="matrix(1,0,0,1,-168,112)" stroke="rgb(255,204,0)">
      <rect x="731.695" width="151.2667" height="45" y="218.7846" clip-path="url(#clipPath2)" stroke="none"/>
    </g>
    <g text-rendering="geometricPrecision" stroke-miterlimit="1.45" shape-rendering="geometricPrecision" transform="matrix(1,0,0,1,-168,112)" stroke-linecap="butt">
      <rect fill="none" x="731.695" width="151.2667" height="45" y="218.7846" clip-path="url(#clipPath2)"/>
      <text x="777.0032" xml:space="preserve" y="245.4389" clip-path="url(#clipPath2)" font-family="sans-serif" stroke="none">Mittelwert</text>
    </g>
    <g fill="rgb(255,204,0)" text-rendering="geometricPrecision" shape-rendering="geometricPrecision" transform="matrix(1,0,0,1,-168,112)" stroke="rgb(255,204,0)">
      <rect x="731.695" width="151.2667" height="45" y="173.7846" clip-path="url(#clipPath2)" stroke="none"/>
    </g>
    <g text-rendering="geometricPrecision" stroke-miterlimit="1.45" shape-rendering="geometricPrecision" transform="matrix(1,0,0,1,-168,112)" stroke-linecap="butt">
      <rect fill="none" x="731.695" width="151.2667" height="45" y="173.7846" clip-path="url(#clipPath2)"/>
      <text x="792.885" xml:space="preserve" y="200.4389" clip-path="url(#clipPath2)" font-family="sans-serif" stroke="none">Wert</text>
      <path fill="none" d="M739.0735 278.7859 L441.9415 534.2928" stroke-width="5" clip-path="url(#clipPath2)"/>
      <path d="M432.8429 542.1168 L451.3809 536.0674 L443.0789 533.3148 L441.6008 524.6942 Z" stroke-width="5" clip-path="url(#clipPath2)" stroke="none"/>
    </g>
    <g fill="rgb(225,225,225)" text-rendering="geometricPrecision" shape-rendering="geometricPrecision" transform="matrix(1,0,0,1,-168,112)" stroke="rgb(225,225,225)">
      <rect x="716.695" y="-48.3469" clip-path="url(#clipPath2)" width="209.2667" rx="4" ry="4" height="141.4609" stroke="none"/>
      <rect x="716.695" y="-48.3469" clip-path="url(#clipPath2)" fill="rgb(235,235,235)" width="209.2667" height="21.4609" stroke="none"/>
    </g>
    <g font-size="15px" stroke-linecap="butt" transform="matrix(1,0,0,1,-168,112)" text-rendering="geometricPrecision" font-family="sans-serif" shape-rendering="geometricPrecision" stroke-miterlimit="1.45">
      <text x="863.0022" xml:space="preserve" y="-32.4235" clip-path="url(#clipPath2)" stroke="none">Sensor1</text>
      <rect x="716.695" y="-48.3469" clip-path="url(#clipPath2)" fill="none" width="209.2667" stroke-dasharray="6,2" rx="4" ry="4" height="141.4609"/>
    </g>
    <g fill="rgb(255,204,0)" text-rendering="geometricPrecision" shape-rendering="geometricPrecision" transform="matrix(1,0,0,1,-168,112)" stroke="rgb(255,204,0)">
      <rect x="731.695" width="151.2667" height="45" y="33.1141" clip-path="url(#clipPath2)" stroke="none"/>
    </g>
    <g text-rendering="geometricPrecision" stroke-miterlimit="1.45" shape-rendering="geometricPrecision" transform="matrix(1,0,0,1,-168,112)" stroke-linecap="butt">
      <rect fill="none" x="731.695" width="151.2667" height="45" y="33.1141" clip-path="url(#clipPath2)"/>
      <text x="777.0032" xml:space="preserve" y="59.7684" clip-path="url(#clipPath2)" font-family="sans-serif" stroke="none">Mittelwert</text>
    </g>
    <g fill="rgb(255,204,0)" text-rendering="geometricPrecision" shape-rendering="geometricPrecision" transform="matrix(1,0,0,1,-168,112)" stroke="rgb(255,204,0)">
      <rect x="731.695" width="151.2667" height="45" y="-11.8859" clip-path="url(#clipPath2)" stroke="none"/>
    </g>
    <g text-rendering="geometricPrecision" stroke-miterlimit="1.45" shape-rendering="geometricPrecision" transform="matrix(1,0,0,1,-168,112)" stroke-linecap="butt">
      <rect fill="none" x="731.695" width="151.2667" height="45" y="-11.8859" clip-path="url(#clipPath2)"/>
      <text x="792.885" xml:space="preserve" y="14.7684" clip-path="url(#clipPath2)" font-family="sans-serif" stroke="none">Wert</text>
    </g>
    <g fill="rgb(225,225,225)" text-rendering="geometricPrecision" shape-rendering="geometricPrecision" transform="matrix(1,0,0,1,-168,112)" stroke="rgb(225,225,225)">
      <rect x="198.4218" y="-59.9671" clip-path="url(#clipPath2)" width="234.4333" rx="4" ry="4" height="456.4609" stroke="none"/>
      <rect x="198.4218" y="-59.9671" clip-path="url(#clipPath2)" fill="rgb(235,235,235)" width="234.4333" height="21.4609" stroke="none"/>
    </g>
    <g font-size="15px" stroke-linecap="butt" transform="matrix(1,0,0,1,-168,112)" text-rendering="geometricPrecision" font-family="sans-serif" shape-rendering="geometricPrecision" stroke-miterlimit="1.45">
      <text x="378.3551" xml:space="preserve" y="-44.0438" clip-path="url(#clipPath2)" stroke="none">Zone 1</text>
      <rect x="198.4218" y="-59.9671" clip-path="url(#clipPath2)" fill="none" width="234.4333" stroke-dasharray="6,2" rx="4" ry="4" height="456.4609"/>
    </g>
    <g fill="rgb(255,204,0)" text-rendering="geometricPrecision" shape-rendering="geometricPrecision" transform="matrix(1,0,0,1,-168,112)" stroke="rgb(255,204,0)">
      <rect x="213.4218" width="151.2667" height="45" y="-23.5062" clip-path="url(#clipPath2)" stroke="none"/>
    </g>
    <g text-rendering="geometricPrecision" stroke-miterlimit="1.45" shape-rendering="geometricPrecision" transform="matrix(1,0,0,1,-168,112)" stroke-linecap="butt">
      <rect fill="none" x="213.4218" width="151.2667" height="45" y="-23.5062" clip-path="url(#clipPath2)"/>
      <text x="253.2074" xml:space="preserve" y="3.1481" clip-path="url(#clipPath2)" font-family="sans-serif" stroke="none">Schaltpunkt</text>
    </g>
    <g fill="rgb(255,204,0)" text-rendering="geometricPrecision" shape-rendering="geometricPrecision" transform="matrix(1,0,0,1,-168,112)" stroke="rgb(255,204,0)">
      <rect x="213.4218" width="151.2667" height="45" y="111.4938" clip-path="url(#clipPath2)" stroke="none"/>
    </g>
    <g text-rendering="geometricPrecision" stroke-miterlimit="1.45" shape-rendering="geometricPrecision" transform="matrix(1,0,0,1,-168,112)" stroke-linecap="butt">
      <rect fill="none" x="213.4218" width="151.2667" height="45" y="111.4938" clip-path="url(#clipPath2)"/>
      <text x="253.2074" xml:space="preserve" y="138.1481" clip-path="url(#clipPath2)" font-family="sans-serif" stroke="none">Schaltpunkt</text>
    </g>
    <g fill="rgb(255,204,0)" text-rendering="geometricPrecision" shape-rendering="geometricPrecision" transform="matrix(1,0,0,1,-168,112)" stroke="rgb(255,204,0)">
      <rect x="213.4218" width="151.2667" height="45" y="201.4938" clip-path="url(#clipPath2)" stroke="none"/>
    </g>
    <g text-rendering="geometricPrecision" stroke-miterlimit="1.45" shape-rendering="geometricPrecision" transform="matrix(1,0,0,1,-168,112)" stroke-linecap="butt">
      <rect fill="none" x="213.4218" width="151.2667" height="45" y="201.4938" clip-path="url(#clipPath2)"/>
      <text x="253.2074" xml:space="preserve" y="228.1481" clip-path="url(#clipPath2)" font-family="sans-serif" stroke="none">Schaltpunkt</text>
    </g>
    <g fill="rgb(255,204,0)" text-rendering="geometricPrecision" shape-rendering="geometricPrecision" transform="matrix(1,0,0,1,-168,112)" stroke="rgb(255,204,0)">
      <rect x="213.4218" width="111.6667" height="45" y="21.4938" clip-path="url(#clipPath2)" stroke="none"/>
    </g>
    <g text-rendering="geometricPrecision" stroke-miterlimit="1.45" shape-rendering="geometricPrecision" transform="matrix(1,0,0,1,-168,112)" stroke-linecap="butt">
      <rect fill="none" x="213.4218" width="111.6667" height="45" y="21.4938" clip-path="url(#clipPath2)"/>
      <text x="243.1252" xml:space="preserve" y="41.1637" clip-path="url(#clipPath2)" font-family="sans-serif" stroke="none">Ausgang</text>
      <text x="235.1272" xml:space="preserve" y="55.1325" clip-path="url(#clipPath2)" font-family="sans-serif" stroke="none">z.B. LED an</text>
    </g>
    <g fill="rgb(255,204,0)" text-rendering="geometricPrecision" shape-rendering="geometricPrecision" transform="matrix(1,0,0,1,-168,112)" stroke="rgb(255,204,0)">
      <rect x="213.4218" width="111.6667" height="45" y="66.4938" clip-path="url(#clipPath2)" stroke="none"/>
    </g>
    <g text-rendering="geometricPrecision" stroke-miterlimit="1.45" shape-rendering="geometricPrecision" transform="matrix(1,0,0,1,-168,112)" stroke-linecap="butt">
      <rect fill="none" x="213.4218" width="111.6667" height="45" y="66.4938" clip-path="url(#clipPath2)"/>
      <text x="243.1252" xml:space="preserve" y="86.1637" clip-path="url(#clipPath2)" font-family="sans-serif" stroke="none">Ausgang</text>
      <text x="220.8625" xml:space="preserve" y="100.1325" clip-path="url(#clipPath2)" font-family="sans-serif" stroke="none">z.B. RELAIS  aus</text>
    </g>
    <g fill="rgb(255,204,0)" text-rendering="geometricPrecision" shape-rendering="geometricPrecision" transform="matrix(1,0,0,1,-168,112)" stroke="rgb(255,204,0)">
      <rect x="213.4218" width="111.6667" height="45" y="156.4938" clip-path="url(#clipPath2)" stroke="none"/>
    </g>
    <g text-rendering="geometricPrecision" stroke-miterlimit="1.45" shape-rendering="geometricPrecision" transform="matrix(1,0,0,1,-168,112)" stroke-linecap="butt">
      <rect fill="none" x="213.4218" width="111.6667" height="45" y="156.4938" clip-path="url(#clipPath2)"/>
      <text x="243.1252" xml:space="preserve" y="176.1637" clip-path="url(#clipPath2)" font-family="sans-serif" stroke="none">Ausgang</text>
      <text x="223.9885" xml:space="preserve" y="190.1325" clip-path="url(#clipPath2)" font-family="sans-serif" stroke="none">z.B. RELAIS  an</text>
    </g>
    <g fill="rgb(255,204,0)" text-rendering="geometricPrecision" shape-rendering="geometricPrecision" transform="matrix(1,0,0,1,-168,112)" stroke="rgb(255,204,0)">
      <rect x="213.4218" width="111.6667" height="45" y="246.4938" clip-path="url(#clipPath2)" stroke="none"/>
    </g>
    <g text-rendering="geometricPrecision" stroke-miterlimit="1.45" shape-rendering="geometricPrecision" transform="matrix(1,0,0,1,-168,112)" stroke-linecap="butt">
      <rect fill="none" x="213.4218" width="111.6667" height="45" y="246.4938" clip-path="url(#clipPath2)"/>
      <text x="243.1252" xml:space="preserve" y="266.1638" clip-path="url(#clipPath2)" font-family="sans-serif" stroke="none">Ausgang</text>
      <text x="223.9885" xml:space="preserve" y="280.1325" clip-path="url(#clipPath2)" font-family="sans-serif" stroke="none">z.B. RELAIS  an</text>
    </g>
    <g fill="rgb(255,204,0)" text-rendering="geometricPrecision" shape-rendering="geometricPrecision" transform="matrix(1,0,0,1,-168,112)" stroke="rgb(255,204,0)">
      <rect x="213.4218" width="111.6667" height="45" y="336.4938" clip-path="url(#clipPath2)" stroke="none"/>
    </g>
    <g text-rendering="geometricPrecision" stroke-miterlimit="1.45" shape-rendering="geometricPrecision" transform="matrix(1,0,0,1,-168,112)" stroke-linecap="butt">
      <rect fill="none" x="213.4218" width="111.6667" height="45" y="336.4938" clip-path="url(#clipPath2)"/>
      <text x="243.1252" xml:space="preserve" y="356.1638" clip-path="url(#clipPath2)" font-family="sans-serif" stroke="none">Ausgang</text>
      <text x="223.9885" xml:space="preserve" y="370.1325" clip-path="url(#clipPath2)" font-family="sans-serif" stroke="none">z.B. RELAIS  an</text>
    </g>
    <g fill="rgb(255,204,0)" text-rendering="geometricPrecision" shape-rendering="geometricPrecision" transform="matrix(1,0,0,1,-168,112)" stroke="rgb(255,204,0)">
      <rect x="213.4218" width="111.6667" height="45" y="291.4938" clip-path="url(#clipPath2)" stroke="none"/>
    </g>
    <g text-rendering="geometricPrecision" stroke-miterlimit="1.45" shape-rendering="geometricPrecision" transform="matrix(1,0,0,1,-168,112)" stroke-linecap="butt">
      <rect fill="none" x="213.4218" width="111.6667" height="45" y="291.4938" clip-path="url(#clipPath2)"/>
      <text x="243.1252" xml:space="preserve" y="311.1638" clip-path="url(#clipPath2)" font-family="sans-serif" stroke="none">Ausgang</text>
      <text x="223.9885" xml:space="preserve" y="325.1325" clip-path="url(#clipPath2)" font-family="sans-serif" stroke="none">z.B. RELAIS  an</text>
      <path fill="none" d="M716.6656 52.5764 L440.5442 132.231" clip-path="url(#clipPath2)"/>
      <path d="M432.8576 134.4483 L445.7733 135.9264 L441.505 131.9538 L443.0016 126.3182 Z" clip-path="url(#clipPath2)" stroke="none"/>
      <path fill="none" d="M716.6656 199.8186 L444.8451 178.4301" stroke-width="5" clip-path="url(#clipPath2)"/>
      <path d="M432.8821 177.4888 L450.2383 186.3777 L446.3405 178.5478 L451.415 171.4239 Z" stroke-width="5" clip-path="url(#clipPath2)" stroke="none"/>
    </g>
  </g>
</svg>
